<svg id="visual" viewBox="0 0 900 450" width="900" height="450" xmlns="http://www.w3.org/2000/svg" xmlns:xlink="http://www.w3.org/1999/xlink" version="1.1"><path d="M0 37L50 40C100 43 200 49 300 51.3C400 53.7 500 52.3 600 48.7C700 45 800 39 850 36L900 33L900 0L850 0C800 0 700 0 600 0C500 0 400 0 300 0C200 0 100 0 50 0L0 0Z" fill="#023684"></path><path d="M0 73L50 78.3C100 83.7 200 94.3 300 91.3C400 88.3 500 71.7 600 67.2C700 62.7 800 70.3 850 74.2L900 78L900 31L850 34C800 37 700 43 600 46.7C500 50.3 400 51.7 300 49.3C200 47 100 41 50 38L0 35Z" fill="#023078"></path><path d="M0 163L50 154.8C100 146.7 200 130.3 300 124.3C400 118.3 500 122.7 600 132.3C700 142 800 157 850 164.5L900 172L900 76L850 72.2C800 68.3 700 60.7 600 65.2C500 69.7 400 86.3 300 89.3C200 92.3 100 81.7 50 76.3L0 71Z" fill="#022a6d"></path><path d="M0 195L50 193.5C100 192 200 189 300 184.5C400 180 500 174 600 176.2C700 178.3 800 188.7 850 193.8L900 199L900 170L850 162.5C800 155 700 140 600 130.3C500 120.7 400 116.3 300 122.3C200 128.3 100 144.7 50 152.8L0 161Z" fill="#012462"></path><path d="M0 222L50 216.7C100 211.3 200 200.7 300 194.7C400 188.7 500 187.3 600 195.7C700 204 800 222 850 231L900 240L900 197L850 191.8C800 186.7 700 176.3 600 174.2C500 172 400 178 300 182.5C200 187 100 190 50 191.5L0 193Z" fill="#001e57"></path><path d="M0 244L50 238.8C100 233.7 200 223.3 300 218.2C400 213 500 213 600 219C700 225 800 237 850 243L900 249L900 238L850 229C800 220 700 202 600 193.7C500 185.3 400 186.7 300 192.7C200 198.7 100 209.3 50 214.7L0 220Z" fill="#00184c"></path><path d="M0 276L50 273C100 270 200 264 300 279C400 294 500 330 600 345.7C700 361.3 800 356.7 850 354.3L900 352L900 247L850 241C800 235 700 223 600 217C500 211 400 211 300 216.2C200 221.3 100 231.7 50 236.8L0 242Z" fill="#001342"></path><path d="M0 321L50 312.7C100 304.3 200 287.7 300 300.3C400 313 500 355 600 376C700 397 800 397 850 397L900 397L900 350L850 352.3C800 354.7 700 359.3 600 343.7C500 328 400 292 300 277C200 262 100 268 50 271L0 274Z" fill="#000b38"></path><path d="M0 451L50 451C100 451 200 451 300 451C400 451 500 451 600 451C700 451 800 451 850 451L900 451L900 395L850 395C800 395 700 395 600 374C500 353 400 311 300 298.3C200 285.7 100 302.3 50 310.7L0 319Z" fill="#00002e"></path></svg>