<?xml version="1.0" encoding="UTF-8" standalone="no"?>
<!-- Created with Inkscape (http://www.inkscape.org/) -->

<svg
   width="207.575"
   height="207.575"
   id="svg4343"
   version="1.1"
   inkscape:version="1.3.2 (1:1.3.2+202311252150+091e20ef0f)"
   sodipodi:docname="caltech.svg"
   xmlns:inkscape="http://www.inkscape.org/namespaces/inkscape"
   xmlns:sodipodi="http://sodipodi.sourceforge.net/DTD/sodipodi-0.dtd"
   xmlns="http://www.w3.org/2000/svg"
   xmlns:svg="http://www.w3.org/2000/svg">
  <defs
     id="defs1" />
  <sodipodi:namedview
     id="namedview1"
     pagecolor="#ffffff"
     bordercolor="#000000"
     borderopacity="0.25"
     inkscape:showpageshadow="2"
     inkscape:pageopacity="0.0"
     inkscape:pagecheckerboard="0"
     inkscape:deskcolor="#d1d1d1"
     inkscape:zoom="2.0485968"
     inkscape:cx="60.529236"
     inkscape:cy="122.76696"
     inkscape:window-width="1920"
     inkscape:window-height="1031"
     inkscape:window-x="0"
     inkscape:window-y="25"
     inkscape:window-maximized="1"
     inkscape:current-layer="g13567" />
  <g
     inkscape:label="レイヤー 1"
     inkscape:groupmode="layer"
     id="layer1"
     transform="translate(-703.60275,-168.12545)">
    <g
       id="g13567"
       transform="matrix(6.247307,0,0,6.247307,567.24161,-1731.8416)">
      <g
         id="g12944"
         clip-path="url(#clipPath12946)"
         transform="matrix(0.32555669,0,0,-0.32555669,-191.06729,504.1319)"
         style="fill:#000000;fill-opacity:1">
        <g
           id="g12950"
           transform="translate(741.2328,551.9843)"
           style="fill:#000000;fill-opacity:1">
          <path
             d="m 0,0 h 3.968 v 8.457 c 0,2.017 0.911,4.554 3.904,4.554 2.017,0 2.927,-0.976 2.927,-3.253 V 0 h 3.968 v 10.896 c 0,4.782 -3.22,5.953 -6.017,5.953 -2.245,0 -3.839,-0.878 -4.717,-2.017 H 3.968 V 23.81 H 0 Z m -1.236,12.165 c -1.008,2.472 -2.96,4.684 -6.961,4.684 -5.334,0 -8.424,-3.708 -8.424,-8.619 0,-4.912 3.09,-8.62 8.131,-8.62 4.457,0 6.343,2.634 7.449,5.042 L -4.424,6.44 c -0.618,-1.496 -1.626,-3.187 -4,-3.187 -2.765,0 -4.034,2.406 -4.034,4.977 0,2.569 1.431,4.976 4.261,4.976 1.561,0 2.96,-1.008 3.481,-2.635 z m -28.873,-1.821 c 0.423,1.756 1.952,3.252 4.261,3.252 2.667,0 3.74,-2.374 3.74,-3.252 z m 12.165,-3.058 c 0,5.888 -2.407,9.563 -7.904,9.563 -5.335,0 -8.425,-3.708 -8.425,-8.619 0,-4.912 3.09,-8.62 8.425,-8.62 4.488,0 6.863,2.146 8.099,4.033 l -3.35,1.951 c -0.391,-0.552 -1.627,-2.341 -4.749,-2.341 -2.147,0 -4.196,1.593 -4.261,4.033 z M -41.992,20.043 V 3.773 c 0,-2.505 1.106,-3.968 4.358,-3.968 1.237,0 2.212,0.195 3.156,0.39 v 3.253 c -0.586,-0.065 -1.204,-0.195 -1.757,-0.195 -1.529,0 -1.789,0.715 -1.789,2.016 v 8.327 h 3.546 v 2.863 h -3.546 v 7.557 z M -48.641,0 h 3.968 v 23.81 h -3.968 z m -6.809,5.887 c 0,-2.114 -2.374,-3.025 -4.229,-3.025 -1.431,0 -2.569,0.814 -2.569,2.05 0,1.561 1.236,1.984 2.732,2.276 l 2.179,0.456 c 0.716,0.13 1.367,0.325 1.887,0.586 z m 3.968,5.562 c 0,4.684 -3.545,5.4 -7.091,5.4 -3.61,0 -7.026,-1.496 -7.026,-5.367 l 3.969,-0.163 c 0,1.789 0.748,2.472 3.057,2.472 1.724,0 3.123,-0.455 3.123,-2.081 v -0.488 c -1.008,-0.358 -2.863,-0.683 -4.294,-0.976 l -1.659,-0.325 c -2.439,-0.488 -5.009,-1.92 -5.009,-5.14 0,-3.187 2.472,-5.171 5.595,-5.171 2.049,0 3.838,0.65 5.367,1.886 0,-0.423 0.13,-1.106 0.39,-1.496 h 4.196 c -0.227,0.358 -0.618,1.073 -0.618,2.765 z m -15.528,5.01 c -1.106,4.846 -4.652,7.286 -9.303,7.286 -6.928,0 -10.98,-5.627 -10.98,-12.165 0,-6.538 3.564,-12.165 10.98,-12.165 4.619,0 7.709,2.244 9.563,6.895 l -3.968,1.822 c -0.846,-2.7 -2.57,-4.684 -5.595,-4.684 -4.619,0 -6.538,4.098 -6.538,8.132 0,4.033 1.919,8.131 6.538,8.131 2.635,0 4.749,-1.756 5.107,-4.326 z"
             style="fill:#000000;fill-opacity:1;fill-rule:nonzero;stroke:none"
             id="path12952"
             inkscape:connector-curvature="0" />
        </g>
      </g>
    </g>
  </g>
</svg>
