<?xml version="1.0" encoding="UTF-8" standalone="no"?>
<!-- Created with Inkscape (http://www.inkscape.org/) -->

<svg
   version="1.0"
   width="193.489"
   height="193.489"
   id="svg2"
   sodipodi:docname="jpl.svg"
   inkscape:version="1.3.2 (1:1.3.2+202311252150+091e20ef0f)"
   xmlns:inkscape="http://www.inkscape.org/namespaces/inkscape"
   xmlns:sodipodi="http://sodipodi.sourceforge.net/DTD/sodipodi-0.dtd"
   xmlns="http://www.w3.org/2000/svg"
   xmlns:svg="http://www.w3.org/2000/svg"
   xmlns:rdf="http://www.w3.org/1999/02/22-rdf-syntax-ns#"
   xmlns:cc="http://creativecommons.org/ns#"
   xmlns:dc="http://purl.org/dc/elements/1.1/">
  <sodipodi:namedview
     id="namedview1"
     pagecolor="#ffffff"
     bordercolor="#000000"
     borderopacity="0.25"
     inkscape:showpageshadow="2"
     inkscape:pageopacity="0.0"
     inkscape:pagecheckerboard="0"
     inkscape:deskcolor="#d1d1d1"
     inkscape:zoom="1.6099252"
     inkscape:cx="-40.374546"
     inkscape:cy="205.28904"
     inkscape:window-width="1920"
     inkscape:window-height="1031"
     inkscape:window-x="0"
     inkscape:window-y="25"
     inkscape:window-maximized="1"
     inkscape:current-layer="svg2" />
  <defs
     id="defs124" />
  <metadata
     id="metadata4">
    <rdf:RDF>
      <cc:Work
         rdf:about="">
        <dc:format>image/svg+xml</dc:format>
        <dc:type
           rdf:resource="http://purl.org/dc/dcmitype/StillImage" />
      </cc:Work>
    </rdf:RDF>
  </metadata>
  <path
     d="m 3.7711292,111.75944 3.7711297,-7.07765 14.5260891,-0.27955 c 11.730909,-0.22577 14.687581,-0.53552 15.365332,-1.60975 0.461669,-0.73174 0.845352,-10.207194 0.852822,-21.061339 L 38.300082,62 h 9.311329 9.311329 v 23.368883 c 0,22.774557 -0.05074,23.443447 -1.995285,26.300557 -1.097406,1.61243 -3.121049,3.7665 -4.496983,4.78682 -2.370387,1.75774 -3.75957,1.86891 -26.466086,2.11798 L 0,118.83709 Z"
     id="path3203"
     style="fill:#000000;fill-opacity:1" />
  <path
     d="M 63.130295,90.377385 V 62 h 27.746088 c 27.012267,0 27.850547,0.05276 31.695707,1.995285 11.70563,5.91351 14.35457,27.487993 4.47131,36.416925 -4.29873,3.88364 -7.00473,4.33343 -23.93582,3.97851 l -12.786932,-0.26804 -3.840445,-6.504717 c -2.112256,-3.577599 -3.840457,-6.670281 -3.840457,-6.872648 0,-0.202357 6.384916,-0.36793 14.188692,-0.36793 13.006302,0 14.336492,-0.147793 15.962272,-1.773587 2.41878,-2.418755 2.40685,-8.234682 -0.0218,-10.663378 -1.67733,-1.677334 -2.74205,-1.779422 -16.18398,-1.551889 l -14.388535,0.243558 -0.237749,21.06134 -0.237749,21.061341 H 72.425618 63.13034 V 90.377385 Z"
     id="path3201"
     style="fill:#000000;fill-opacity:1" />
  <path
     d="m 143.11736,117.27133 c -5.28652,-2.60534 -5.49643,-3.78313 -5.49643,-30.840477 V 62 h 8.4082 8.40819 l 0.23804,20.617944 0.23804,20.617946 15.74097,0.24216 15.74098,0.24217 3.54678,7.05419 c 1.95073,3.87981 3.54678,7.26259 3.54678,7.51729 0,0.25469 -10.67477,0.45399 -23.72172,0.44288 -20.09158,-0.0171 -24.16981,-0.24102 -26.64983,-1.46325 z"
     id="path1873"
     style="fill:#000000;fill-opacity:1" />
</svg>
