<?xml version="1.0" encoding="UTF-8" standalone="no"?>
<svg
   version="1.1"
   height="109.537"
   width="109.537"
   viewBox="0 0 109.53541 109.53238"
   id="svg30"
   sodipodi:docname="usyd.svg"
   inkscape:version="1.3.2 (1:1.3.2+202311252150+091e20ef0f)"
   xmlns:inkscape="http://www.inkscape.org/namespaces/inkscape"
   xmlns:sodipodi="http://sodipodi.sourceforge.net/DTD/sodipodi-0.dtd"
   xmlns:xlink="http://www.w3.org/1999/xlink"
   xmlns="http://www.w3.org/2000/svg"
   xmlns:svg="http://www.w3.org/2000/svg"
   xmlns:rdf="http://www.w3.org/1999/02/22-rdf-syntax-ns#"
   xmlns:cc="http://creativecommons.org/ns#"
   xmlns:dc="http://purl.org/dc/elements/1.1/">
  <defs
     id="defs30">
    <defs
       id="defs3">
      <rect
         id="XMLID_1_"
         y="29.400999"
         width="205.58"
         x="27.209"
         height="71.197998" />
    </defs>
    <clipPath
       id="XMLID_3_">
      <use
         xlink:href="#XMLID_1_"
         height="130"
         width="260"
         y="0"
         x="0"
         id="use3" />
    </clipPath>
  </defs>
  <sodipodi:namedview
     id="namedview30"
     pagecolor="#ffffff"
     bordercolor="#000000"
     borderopacity="0.25"
     inkscape:showpageshadow="2"
     inkscape:pageopacity="0.0"
     inkscape:pagecheckerboard="0"
     inkscape:deskcolor="#d1d1d1"
     inkscape:zoom="2.7332151"
     inkscape:cx="151.10409"
     inkscape:cy="4.5733685"
     inkscape:window-width="1920"
     inkscape:window-height="1031"
     inkscape:window-x="0"
     inkscape:window-y="25"
     inkscape:window-maximized="1"
     inkscape:current-layer="svg30" />
  <title
     id="title1">University of Sydney</title>
  <path
     fill="#fbb500"
     d="M 93.869,39.555 V 56.098 C 93.869,76.151 80.213,96.747 60.531,100.6 41.551,96.997 27.21,76.15 27.21,56.098 V 33.852 c 0,0 16.629,-4.452 33.327,-4.452 19.402,0 33.332,4.452 33.332,4.452 z"
     clip-path="url(#XMLID_3_)"
     id="path15"
     transform="matrix(1.5384615,0,0,1.5384615,-38.26159,-45.23382)"
     style="fill:#000000" />
  <path
     fill="#ffffff"
     d="M 60.537,95.382 C 76.516,95.365 88.91,80.542 88.912,64.218 V 36.117 L 88.495,35.99 c 0,0 -14.398,-4.465 -27.964,-4.469 -13.562,0.004 -27.938,4.463 -27.962,4.469 l -0.417,0.127 v 28.102 c 0.002,16.324 12.396,31.147 28.375,31.164"
     clip-path="url(#XMLID_3_)"
     id="path16"
     transform="matrix(1.5384615,0,0,1.5384615,-38.26159,-45.23382)" />
  <path
     fill="#004485"
     d="M 66.989,93.322 V 82.269 h 12.613 c 0.739,0 1.396,0.367 1.802,0.93 2.98,-3.975 5.053,-8.752 5.898,-13.849 H 66.989 V 58.721 c -2.135,-0.108 -4.307,-0.173 -6.457,-0.173 -2.146,0 -4.315,0.064 -6.446,0.171 V 69.35 H 33.759 c 0.847,5.101 2.923,9.879 5.907,13.854 0.403,-0.565 1.063,-0.936 1.809,-0.936 h 12.611 v 11.058 c 2.061,0.567 4.212,0.879 6.441,0.879 v 0.092 h 0.01 v -0.092 c 2.231,0.001 4.388,-0.311 6.452,-0.883"
     clip-path="url(#XMLID_3_)"
     id="path17"
     transform="matrix(1.5384615,0,0,1.5384615,-38.26159,-45.23382)"
     style="fill:#000000" />
  <polygon
     points="81.327,72.122 80.021,74.877 82.87,75.861 80.002,76.883 81.327,79.594 78.573,78.288 77.594,81.141 76.571,78.273 73.861,79.594 75.17,76.84 72.318,75.861 75.183,74.837 73.861,72.122 76.617,73.429 77.594,70.579 78.62,73.443 "
     fill="#fbb500"
     clip-path="url(#XMLID_3_)"
     id="polygon17"
     transform="matrix(1.5384615,0,0,1.5384615,-38.26159,-45.23382)"
     style="fill:#ffffff" />
  <polygon
     points="39.736,72.122 41.043,74.877 38.193,75.861 41.065,76.883 39.736,79.594 42.492,78.288 43.469,81.141 44.49,78.273 47.202,79.594 45.894,76.84 48.745,75.861 45.881,74.837 47.202,72.122 44.45,73.429 43.469,70.579 42.447,73.443 "
     fill="#fbb500"
     clip-path="url(#XMLID_3_)"
     id="polygon18"
     transform="matrix(1.5384615,0,0,1.5384615,-38.26159,-45.23382)"
     style="fill:#ffffff" />
  <polygon
     points="64.266,82.951 62.963,85.705 65.813,86.684 62.947,87.709 64.266,90.42 61.518,89.116 60.539,91.974 59.515,89.096 56.806,90.42 58.113,87.667 55.261,86.684 58.127,85.66 56.806,82.951 59.554,84.257 60.539,81.404 61.563,84.273 "
     fill="#fbb500"
     clip-path="url(#XMLID_3_)"
     id="polygon19"
     transform="matrix(1.5384615,0,0,1.5384615,-38.26159,-45.23382)"
     style="fill:#ffffff" />
  <polygon
     points="64.268,62.035 62.961,64.786 65.815,65.767 62.947,66.792 64.268,69.503 61.52,68.199 60.539,71.049 59.515,68.183 56.81,69.503 58.111,66.748 55.261,65.767 58.127,64.745 56.81,62.035 59.556,63.34 60.539,60.487 61.558,63.357 "
     fill="#fbb500"
     clip-path="url(#XMLID_3_)"
     id="polygon20"
     transform="matrix(1.5384615,0,0,1.5384615,-38.26159,-45.23382)"
     style="fill:#ffffff" />
  <rect
     clip-path="url(#XMLID_3_)"
     height="0.88099998"
     width="1.1950001"
     y="71.483002"
     x="69.503998"
     fill="#fbb500"
     id="rect20"
     transform="matrix(1.5384615,0,0,1.5384615,-38.26159,-45.23382)"
     style="fill:#ffffff" />
  <rect
     clip-path="url(#XMLID_3_)"
     height="0.87699997"
     width="1.1950001"
     y="73.830002"
     x="69.503998"
     fill="#fbb500"
     id="rect21"
     transform="matrix(1.5384615,0,0,1.5384615,-38.26159,-45.23382)"
     style="fill:#ffffff" />
  <rect
     clip-path="url(#XMLID_3_)"
     height="0.88099998"
     width="1.1950001"
     y="76.169998"
     x="69.503998"
     fill="#fbb500"
     id="rect22"
     transform="matrix(1.5384615,0,0,1.5384615,-38.26159,-45.23382)"
     style="fill:#ffffff" />
  <rect
     clip-path="url(#XMLID_3_)"
     height="0.875"
     width="1.1950001"
     y="78.516998"
     x="69.503998"
     fill="#fbb500"
     id="rect23"
     transform="matrix(1.5384615,0,0,1.5384615,-38.26159,-45.23382)"
     style="fill:#ffffff" />
  <path
     fill="#ffffff"
     d="m 63.551,70.944 c -0.103,-0.015 -0.222,0 -0.329,0 -1.213,0 -2.148,0.937 -2.148,2.131 v 7.083 c 0.397,-0.468 0.99,-0.765 1.655,-0.765 0.085,0 4.476,0.003 6.141,0.003 v -8.452 z m 4.129,6.907 h -5.256 v -0.795 h 5.256 z m 0,-2.18 h -5.256 v -0.798 h 5.256 z m 0,-2.18 h -5.256 v -0.798 h 5.256 z"
     clip-path="url(#XMLID_3_)"
     id="path23"
     transform="matrix(1.5384615,0,0,1.5384615,-38.26159,-45.23382)" />
  <rect
     clip-path="url(#XMLID_3_)"
     height="0.88099998"
     width="1.1950001"
     y="71.483002"
     x="50.363998"
     fill="#fbb500"
     id="rect24"
     transform="matrix(1.5384615,0,0,1.5384615,-38.26159,-45.23382)"
     style="fill:#ffffff" />
  <rect
     clip-path="url(#XMLID_3_)"
     height="0.87699997"
     width="1.1950001"
     y="73.830002"
     x="50.363998"
     fill="#fbb500"
     id="rect25"
     transform="matrix(1.5384615,0,0,1.5384615,-38.26159,-45.23382)"
     style="fill:#ffffff" />
  <rect
     clip-path="url(#XMLID_3_)"
     height="0.88099998"
     width="1.1950001"
     y="76.169998"
     x="50.363998"
     fill="#fbb500"
     id="rect26"
     transform="matrix(1.5384615,0,0,1.5384615,-38.26159,-45.23382)"
     style="fill:#ffffff" />
  <rect
     clip-path="url(#XMLID_3_)"
     height="0.875"
     width="1.1950001"
     y="78.516998"
     x="50.363998"
     fill="#fbb500"
     id="rect27"
     transform="matrix(1.5384615,0,0,1.5384615,-38.26159,-45.23382)"
     style="fill:#ffffff" />
  <path
     fill="#ffffff"
     d="m 52.194,70.944 v 8.452 c 1.667,0 6.055,-0.003 6.143,-0.003 0.663,0 1.259,0.297 1.654,0.765 v -7.083 c 0,-1.194 -0.934,-2.131 -2.151,-2.131 -0.106,0 -0.226,-0.015 -0.326,0 z m 1.188,6.109 h 5.257 v 0.796 h -5.257 z m 0,-2.179 h 5.257 v 0.798 h -5.257 z m 0,-2.178 h 5.257 v 0.798 h -5.257 z"
     clip-path="url(#XMLID_3_)"
     id="path27"
     transform="matrix(1.5384615,0,0,1.5384615,-38.26159,-45.23382)" />
  <path
     fill="#d4002a"
     d="m 60.531,57.372 c 11.777,0.002 24.195,1.889 27.205,2.374 V 36.99 c -0.405,-0.117 -1.093,-0.316 -2.019,-0.563 -1.545,-0.414 -3.75,-0.964 -6.369,-1.519 -5.243,-1.107 -12.163,-2.209 -18.817,-2.209 -9.987,-0.002 -20.551,2.484 -25.189,3.728 -0.926,0.248 -1.614,0.447 -2.015,0.563 v 22.755 c 3.006,-0.482 15.43,-2.371 27.204,-2.373"
     clip-path="url(#XMLID_3_)"
     id="path28"
     transform="matrix(1.5384615,0,0,1.5384615,-38.26159,-45.23382)"
     style="fill:#000000" />
  <path
     d="m 72.562,50.55 c -0.382,0.335 -1.063,0.698 -2.143,0.659 -0.456,-0.019 -0.676,0.112 -0.791,0.248 -0.066,0.092 -0.109,0.206 -0.118,0.23 -0.061,0.224 0.021,0.464 0.141,0.653 0.118,0.166 0.073,0.273 -0.106,0.315 -0.177,0.047 -0.414,0.051 -0.877,-0.173 -0.203,-0.098 -0.261,0.027 -0.288,0.121 -0.077,0.227 0.07,0.504 0.373,0.706 0.155,0.136 0.128,0.269 -0.116,0.354 -0.407,0.144 -0.774,-0.045 -1.371,-0.375 -0.352,-0.196 -0.623,-0.228 -0.86,0.051 -0.134,0.156 -0.122,0.299 -0.045,0.38 0.234,0.23 0.374,0.693 -0.207,1.423 -0.192,0.241 -0.398,-0.427 -0.575,-0.348 -0.793,0.371 -1.444,-0.114 -1.689,-0.448 -0.054,-0.068 -0.165,-0.089 -0.301,0 -0.397,0.265 -1.246,0.704 -1.575,-0.063 -0.051,-0.11 -0.518,0.175 -0.512,-0.044 0.017,-1.269 1.118,-1.506 1.587,-1.547 0.143,-0.015 0.172,-0.084 0.096,-0.2 -0.188,-0.275 -0.415,-0.602 -0.291,-0.981 0.087,-0.281 -0.633,-0.346 -0.336,-0.491 1.45,-0.723 2.26,0.662 2.512,0.811 0.421,0.242 2.314,-0.375 2.544,-1.401 0.049,-0.201 -0.44,-0.291 -0.928,-0.413 -0.09,-0.021 -0.139,-0.134 0.022,-0.262 1.149,-0.855 2.069,-1.964 4.146,-2.17 0.252,-0.026 0.352,0.183 0.36,0.285 0.041,0.322 0.124,0.637 0.263,0.932 0.301,0.637 0.661,1.032 1.026,1.323 0.18,0.142 0.159,0.338 0.059,0.425 m 8.317,-2.924 c 1.522,0.007 0.025,1.261 -0.053,1.628 -0.054,0.267 0.191,0.507 0.43,0.646 0.181,0.094 0.186,0.21 0.052,0.33 -0.142,0.124 -0.352,0.237 -0.865,0.248 -0.222,0.002 -0.22,0.143 -0.202,0.239 0.031,0.234 0.294,0.413 0.658,0.456 0.197,0.051 0.231,0.183 0.057,0.368 -0.303,0.315 -0.708,0.315 -1.394,0.292 -0.646,-0.023 -1.161,0.761 -0.782,1.088 0.255,0.22 0.778,0.708 0.328,2.03 -0.143,0.401 -0.387,-0.366 -0.593,-0.245 -0.536,0.318 -1.001,-0.083 -1.244,-0.372 -0.105,-0.123 -0.199,-0.127 -0.269,0 -0.216,0.374 -0.779,1.033 -1.916,0.418 -0.248,-0.132 -0.756,0.32 -0.785,0.167 -0.186,-0.885 0.269,-1.41 0.655,-1.685 0.038,-0.032 0.188,-0.233 -0.064,-0.226 -0.386,-0.02 -0.853,-0.146 -0.906,-0.614 -0.008,-0.1 -0.491,-0.077 -0.465,-0.211 0.113,-0.651 1.544,-1.122 2.53,-0.47 0.834,0.553 1.882,-1.328 1.129,-2.211 -0.544,-0.634 -3.729,1.141 -4.813,-1.166 -0.435,-0.929 0.111,-1.721 -0.332,-1.785 -0.442,-0.063 -2.444,-0.497 -4.667,1.291 -3.757,3.022 -7.829,1.376 -8.787,0.702 -0.149,-0.047 -0.297,0.073 -0.232,0.226 0.153,0.388 0.087,0.751 -0.1,1.028 -0.391,0.592 -1.741,1.197 -1.98,1.268 -1.581,0.462 -1.414,1.675 -1.248,2.212 0.049,0.164 -0.01,0.262 -0.181,0.232 -0.484,-0.089 -1.461,-0.386 -1.846,-1.337 -0.042,-0.109 -0.151,-0.113 -0.283,-0.02 -0.588,0.418 -0.38,1.028 -0.241,1.3 0.053,0.106 0.023,0.208 -0.116,0.224 -0.54,0.065 -0.926,-0.563 -1.39,-0.519 -0.303,0.03 -0.657,0.263 -0.851,0.397 -0.095,0.06 -0.107,0.213 -0.05,0.386 0.591,1.753 -0.379,1.811 -0.437,1.781 -0.071,-0.039 -0.03,-0.331 -0.313,-0.376 -0.95,0.053 -1.223,-0.568 -1.274,-1.026 -0.02,-0.149 -0.077,-0.2 -0.179,-0.132 -0.36,0.252 -1.248,0.745 -1.805,0.02 -0.081,-0.105 -0.346,0.004 -0.49,0.066 -0.115,0.049 -0.12,-0.141 -0.115,-0.2 0.066,-0.999 0.742,-1.449 1.116,-1.624 0.136,-0.063 0.151,-0.137 0.042,-0.218 -0.301,-0.224 -0.832,-0.706 -0.664,-1.231 0.029,-0.098 -0.443,-0.286 -0.325,-0.371 1.092,-0.793 2.497,0.523 2.676,0.666 0.188,0.149 1.181,0.181 3.715,-1.246 1.612,-0.904 2.456,-1.655 2.915,-2.225 0.057,-0.067 0.175,-0.188 0.336,-0.191 1.021,-0.035 2.033,-0.187 2.822,-0.881 0.13,-0.137 0.265,-0.055 0.32,-0.018 1.449,1.009 2.198,-1.224 2.496,-2.246 0.039,-0.208 0.083,-0.378 0.303,-0.389 5.339,0.256 15.458,0.22 15.458,0.22 0,0 1.335,0.106 1.264,-0.723 C 77.818,42.268 72.3,42.295 68.178,42.863 66.682,43.07 64.51,43.188 63.225,42.69 62.692,42.484 62.261,42.152 62.022,41.729 61.766,41.187 61.831,40.862 61.88,40.52 c 0.064,-0.25 0.187,-0.513 0.358,-0.792 1.056,-1.632 3.499,-1.758 4.258,-1.758 0.146,0 0.238,-0.062 0.256,-0.169 0.077,-0.377 0.36,-1.248 1.384,-1.303 0.289,-0.019 0.582,-0.128 0.764,-0.211 0.122,-0.055 0.199,-0.023 0.177,0.083 -0.029,0.132 -0.091,0.308 -0.243,0.44 -0.719,0.616 -0.612,0.9 -0.527,0.981 0.051,0.039 0.116,0.02 0.169,-0.032 2.176,-1.896 3.444,-0.64 3.831,-0.23 0.063,0.073 0.081,0.188 -0.045,0.22 -1.478,0.332 -2.047,1.651 -5.066,1.438 -0.367,-0.024 -2.839,-0.148 -3.625,0.972 -0.452,0.651 -0.137,1.259 1.197,1.553 1.013,0.222 3.376,-0.121 4.49,-0.212 1.091,-0.09 5.845,-0.684 8.339,0.033 1.052,0.301 2.581,1.148 2.276,2.743 -0.198,1.007 -1.167,1.404 -1.167,1.404 0,0 -2.734,1.925 2.173,1.946 M 45.19,45.154 c -0.425,-0.374 0.501,-2.494 -1.542,-3.008 -0.32,-0.019 0.138,0.38 0.024,0.476 -0.594,0.493 -0.439,0.688 -0.474,0.983 -0.012,0.147 -0.167,0.132 -0.242,0.104 -0.432,-0.292 -1.51,-0.861 -2.495,0.052 -0.188,0.172 0.376,0.206 0.36,0.304 -0.123,0.689 0.318,1.062 0.643,1.237 0.106,0.051 0.106,0.183 0.047,0.269 -0.108,0.116 -0.371,0.289 -0.434,0.574 -0.041,0.195 -0.729,0.12 -0.519,0.342 1.05,1.107 2.127,0.464 2.548,0.136 0.299,-0.299 1.549,0.045 1.356,0.685 -0.241,0.813 -0.179,1.212 0.024,1.068 0.322,-0.206 0.505,-0.349 0.945,-0.349 0.085,0 0.327,0.055 0.23,0.251 -0.153,0.378 -0.318,0.717 -0.167,1.239 0.063,0.224 0.216,0.171 0.302,0.085 0.504,-0.698 1.594,-0.686 2.125,-0.346 0.765,0.493 2.931,1.182 5.774,-1.533 0.085,-0.079 0.09,-0.393 -0.16,-0.299 -0.774,0.305 -1.653,0.377 -3.084,-0.354 C 50.335,47.008 49.784,46.812 49.632,46.779 47.857,46.4 45.971,45.852 45.19,45.154 m 23.697,-5.512 c 0,0 1.243,-0.042 2.054,-0.759 0,0 0.871,-0.297 1.378,0.163 0.057,0.054 0.069,0.179 -0.068,0.203 -0.15,0.028 -0.36,0.092 -0.591,0.246 -0.445,0.297 -2.22,1.035 -2.773,0.147 M 55.519,46.09 c -0.153,0.41 -0.729,0.273 -1.037,0.525 -0.034,0.029 -0.126,0.029 -0.154,0.008 -0.304,-0.26 -0.876,-0.132 -1.062,-0.578 -0.015,-0.035 -0.015,-0.107 0.068,-0.12 0.405,-0.044 0.766,-0.243 1.028,-0.531 0.022,-0.027 0.092,-0.053 0.149,0.016 0.237,0.264 0.57,0.456 0.939,0.515 0.046,0.007 0.111,0.046 0.069,0.165 m -3.638,-7.365 c -0.117,-0.11 -0.275,-0.179 -0.448,-0.179 -0.356,0 -0.644,0.289 -0.644,0.647 0,0.204 0.094,0.385 0.239,0.507 0.055,0.036 0.122,0.012 0.134,-0.008 0.195,-0.312 0.436,-0.598 0.714,-0.824 0.027,-0.023 0.054,-0.107 0.005,-0.143 m 0.466,5.614 c 0,-0.288 -0.537,-1.542 -0.74,-1.881 -0.428,-0.745 0.209,-2.935 1.237,-3.193 0.222,-0.053 0.334,-0.377 0.162,-0.546 -0.429,-0.427 -0.919,-0.96 -1.572,-0.96 -0.8,0 -1.446,0.651 -1.446,1.453 0,0.918 0.703,1.063 0.654,1.317 -0.283,0.851 -0.287,1.781 0.095,2.436 0.265,0.454 0.467,1.177 0.625,1.696 0.098,0.533 0.42,0.987 0.874,1.252 0.226,0.132 0.116,0.307 0.211,0.497 0.042,0.092 0.118,0.151 0.175,0.203 0.096,0.074 0.021,0.089 -0.057,0.078 -0.677,-0.084 -1.717,-0.369 -2.148,-1.277 -0.226,-0.486 -0.959,1.228 -1.393,0.409 -0.463,-0.871 -0.676,-1.525 -0.881,-2.4 -0.112,-0.484 -0.417,0.344 -0.533,0.055 -0.211,-0.542 -0.362,-1.12 -0.362,-1.74 0,-2.146 1.576,-3.946 3.694,-4.439 0.409,-0.094 -0.476,-0.776 0.102,-0.745 0.38,0.022 1.622,0.026 2.562,0.484 0.179,0.077 0.289,-0.265 0.647,-0.493 0.027,-0.019 0.112,-0.051 0.177,-0.002 0.371,0.229 0.501,0.562 0.68,0.484 0.935,-0.448 2.166,-0.448 2.539,-0.474 0.6,-0.037 -0.308,0.651 0.104,0.745 2.121,0.493 3.695,2.293 3.695,4.439 0,0.621 -0.152,1.199 -0.364,1.74 -0.114,0.289 -0.417,-0.539 -0.531,-0.055 -0.207,0.875 -0.42,1.529 -0.88,2.4 -0.441,0.819 -1.169,-0.896 -1.396,-0.409 -0.409,0.863 -1.37,1.16 -2.042,1.264 -0.076,0.008 -0.147,-0.002 -0.055,-0.089 0.034,-0.034 0.196,-0.184 0.241,-0.491 0.005,-0.032 -0.015,-0.081 0.058,-0.112 0.505,-0.242 0.888,-0.712 1,-1.28 0.16,-0.527 0.376,-1.278 0.634,-1.742 0.573,-1.023 -0.124,-2.264 0.055,-2.54 0.393,-0.255 0.655,-0.703 0.655,-1.211 0,-0.802 -0.653,-1.453 -1.449,-1.453 -0.434,0 -0.822,0.192 -1.082,0.49 l -0.041,0.039 c -0.132,0.142 -0.262,0.287 -0.376,0.44 -0.132,0.168 -0.102,0.474 0.124,0.535 0.99,0.258 1.634,2.485 1.231,3.208 -0.179,0.321 -0.726,1.52 -0.726,1.869 0,0.449 -0.36,0.813 -0.809,0.813 -0.344,0 -0.633,-0.213 -0.755,-0.529 0,0 0.015,-0.026 0.018,-0.035 0.275,-0.17 0.876,-0.533 0.876,-0.908 L 55.715,42.46 c 0.491,-0.059 0.719,-0.326 0.778,-0.793 0.045,-0.029 0.09,-0.063 0.128,-0.096 0.165,-0.151 0.273,-0.556 -0.079,-0.499 -0.501,0.094 -1.069,0.075 -1.619,0.228 -0.073,0.02 -0.126,0.085 -0.141,0.156 -0.024,0.106 0.298,1.58 0.371,1.906 0.004,0.036 -0.019,0.06 -0.037,0.06 -0.224,-0.02 -0.623,-0.039 -0.721,-0.039 -0.096,0.002 -0.486,0.024 -0.718,0.043 -0.024,0 -0.057,-0.03 -0.047,-0.06 0.074,-0.348 0.396,-1.813 0.396,-1.813 0.006,-0.063 0,-0.126 -0.034,-0.177 -0.107,-0.139 -1.542,-0.26 -1.736,-0.299 -0.081,-0.015 -0.163,0.018 -0.213,0.085 -0.143,0.203 0.106,0.429 0.265,0.523 0.061,0.452 0.301,0.714 0.776,0.773 0.007,0.006 0.016,0.022 0.022,0.024 -0.015,0.081 -0.137,1.209 -0.137,1.215 0,0.391 0.593,0.721 0.888,0.894 0.014,0.02 0.036,0.045 0.041,0.073 -0.143,0.284 -0.423,0.486 -0.745,0.486 -0.446,0.002 -0.806,-0.362 -0.806,-0.811 m 4.637,-5.544 c 0.267,0.228 0.49,0.525 0.676,0.857 0.014,0.034 0.085,0.075 0.124,0.039 0.143,-0.118 0.236,-0.297 0.236,-0.499 0,-0.358 -0.288,-0.647 -0.646,-0.647 -0.143,0 -0.275,0.045 -0.38,0.126 -0.027,0.019 -0.033,0.103 -0.01,0.124"
     fill-rule="evenodd"
     clip-path="url(#XMLID_3_)"
     fill="#ffdd92"
     id="path29"
     transform="matrix(1.5384615,0,0,1.5384615,-38.26159,-45.23382)"
     style="fill:#ffffff" />
  <path
     fill="#ffffff"
     d="m 88.496,35.991 c 0,0 -14.398,-4.465 -27.964,-4.469 -13.565,0.004 -27.938,4.461 -27.965,4.469 l -0.416,0.126 v 28.101 c 0.004,16.324 12.396,31.147 28.375,31.164 v -1.177 c -7.608,0 -14.395,-3.55 -19.3,-9.079 C 36.323,79.598 33.323,72.087 33.327,64.218 V 60.94 c 1.137,-0.186 4.209,-0.668 8.336,-1.152 5.251,-0.621 12.18,-1.239 18.868,-1.239 6.685,0 13.615,0.619 18.869,1.239 4.125,0.484 7.197,0.967 8.336,1.152 v 3.278 c 0,7.869 -2.998,15.38 -7.899,20.908 -4.906,5.529 -11.693,9.079 -19.3,9.079 v 1.177 C 76.515,95.365 88.909,80.542 88.911,64.218 V 36.117 Z M 60.531,57.373 c -11.774,0 -24.198,1.887 -27.204,2.374 V 36.988 c 0.401,-0.117 1.088,-0.315 2.015,-0.56 4.639,-1.246 15.202,-3.731 25.189,-3.729 6.654,0 13.574,1.101 18.817,2.207 2.62,0.555 4.824,1.107 6.369,1.522 0.926,0.245 1.613,0.443 2.019,0.56 V 59.746 C 84.726,59.26 72.308,57.373 60.531,57.373"
     clip-path="url(#XMLID_3_)"
     id="path30"
     transform="matrix(1.5384615,0,0,1.5384615,-38.26159,-45.23382)" />
  <metadata
     id="metadata30">
    <rdf:RDF>
      <cc:Work
         rdf:about="">
        <dc:title>University of Sydney</dc:title>
      </cc:Work>
    </rdf:RDF>
  </metadata>
</svg>
