<svg version="1.1" xmlns="http://www.w3.org/2000/svg" xmlns:xlink="http://www.w3.org/1999/xlink" height="109.54" width="316.28" viewBox="0 0 316.27539 109.53538"><title>University of Sydney</title>
<polygon points="107.11,44.311,107.76,44.311,107.76,44.688,114.36,44.688,114.36,44.311,115.01,44.311,115.01,46.448,114.36,46.448,114.36,45.366,111.65,45.366,111.65,53.12,113.01,53.12,113.01,53.621,109.11,53.621,109.11,53.12,110.46,53.12,110.46,45.366,107.76,45.366,107.76,46.448,107.11,46.448" fill="#000" transform="matrix(1.5384615,0,0,1.5384615,-41.861537,-45.232305)"/>
<polygon points="119.04,53.621,115.82,53.621,115.82,53.12,116.84,53.12,116.84,45.188,115.82,45.188,115.82,44.688,119.04,44.688,119.04,45.188,118.03,45.188,118.03,48.789,123.1,48.789,123.1,45.188,122.09,45.188,122.09,44.688,125.31,44.688,125.31,45.188,124.28,45.188,124.28,53.12,125.31,53.12,125.31,53.621,122.09,53.621,122.09,53.12,123.1,53.12,123.1,49.397,118.03,49.397,118.03,53.12,119.04,53.12" fill="#000" transform="matrix(1.5384615,0,0,1.5384615,-41.861537,-45.232305)"/>
<polygon points="131.84,44.311,132.46,44.311,132.46,46.462,131.86,46.462,131.86,45.311,128.65,45.311,128.65,48.774,131.21,48.774,131.21,47.761,131.83,47.747,131.83,50.413,131.21,50.427,131.21,49.385,128.65,49.385,128.65,53.013,131.98,53.013,131.98,51.821,132.6,51.821,132.6,53.621,126.44,53.621,126.44,53.12,127.46,53.12,127.46,45.188,126.44,45.188,126.44,44.688,131.84,44.688" fill="#000" transform="matrix(1.5384615,0,0,1.5384615,-41.861537,-45.232305)"/>
<g transform="matrix(1.5384615,0,0,1.5384615,-41.861537,-45.232305)">
<defs>
<rect id="XMLID_1_" y="29.401" width="205.58" x="27.209" height="71.198"/>
</defs>
<clipPath id="XMLID_3_">
<use xlink:href="#XMLID_1_" height="130" width="260" y="0" x="0"/>
</clipPath>
<path fill="#000" d="m145.97,45.189h-1.015v5.156c0,1.448-0.515,2.382-1.636,2.992-0.57,0.297-1.22,0.458-1.883,0.458-1.96,0-3.409-1.299-3.409-3.072v-5.535h-1.015v-0.502h3.221v0.502h-1.015v5.115c0,1.638,0.959,2.707,2.463,2.707,1.542,0,2.583-1.097,2.583-2.721v-5.102h-1.012v-0.502h2.719v0.504z" clip-path="url(#XMLID_3_)"/>
<polygon points="148.02,53.119,148.02,45.703,147.66,45.188,146.72,45.188,146.72,44.689,148.69,44.689,153.64,51.483,153.64,45.188,152.61,45.188,152.61,44.689,155.33,44.689,155.33,45.188,154.32,45.188,154.32,53.77,153.9,53.77,148.7,46.624,148.7,53.119,149.73,53.119,149.73,53.621,147,53.621,147,53.119" fill="#000" clip-path="url(#XMLID_3_)"/>
<polygon points="159.54,45.188,158.52,45.188,158.52,53.12,159.54,53.12,159.54,53.621,156.32,53.621,156.32,53.12,157.33,53.12,157.33,45.188,156.32,45.188,156.32,44.688,159.54,44.688" fill="#000" clip-path="url(#XMLID_3_)"/>
<polygon points="165.05,51.835,167.65,45.188,166.75,45.188,166.75,44.689,169.07,44.689,169.07,45.188,168.39,45.188,165.01,53.851,164.55,53.851,161.14,45.188,160.34,45.188,160.34,44.689,163.7,44.689,163.7,45.188,162.42,45.188" fill="#000" clip-path="url(#XMLID_3_)"/>
<polygon points="175.28,44.311,175.9,44.311,175.9,46.462,175.29,46.462,175.29,45.311,172.08,45.311,172.08,48.774,174.64,48.774,174.64,47.761,175.26,47.747,175.26,50.413,174.64,50.427,174.64,49.385,172.08,49.385,172.08,53.013,175.41,53.013,175.41,51.821,176.04,51.821,176.04,53.621,169.88,53.621,169.88,53.12,170.89,53.12,170.89,45.188,169.88,45.188,169.88,44.688,175.28,44.688" fill="#000" clip-path="url(#XMLID_3_)"/>
<path fill="#000" d="m185.16,53.621h-1.15c-0.798,0-0.948-0.082-1.396-0.798l-2.016-3.208h-1.056v3.504h1.015v0.501h-3.22v-0.5h1.014v-7.931h-1.014v-0.501h3.762c1.313,0,2.056,0.367,2.462,1.205,0.177,0.365,0.273,0.772,0.273,1.205,0,1.313-0.732,2.153-2.031,2.342l1.948,3.004c0.324,0.501,0.542,0.663,0.881,0.663h0.527v0.514zm-5.617-4.629h1.298c1.029,0,1.748-0.757,1.748-1.869,0-1.162-0.637-1.813-1.775-1.813h-1.271v3.682z" clip-path="url(#XMLID_3_)"/>
<path fill="#000" d="m186.89,53.743h-0.637v-2.436h0.637v1.068c0.826,0.555,1.19,0.692,1.786,0.692,1.083,0,1.813-0.57,1.813-1.421,0-0.772-0.527-1.341-1.987-2.1-1.707-0.894-2.287-1.57-2.287-2.679,0-1.34,1.137-2.343,2.666-2.343,0.676,0,1.176,0.122,1.608,0.38v-0.488h0.623v2.314h-0.623v-0.959c-0.688-0.461-1.028-0.596-1.57-0.596-0.919,0-1.514,0.555-1.514,1.393,0,0.691,0.393,1.084,2.084,2.059s2.178,1.569,2.178,2.679c0,1.408-1.162,2.489-2.692,2.489-0.853,0-1.408-0.175-2.084-0.608v0.556z" clip-path="url(#XMLID_3_)"/>
<polygon points="196.13,45.188,195.11,45.188,195.11,53.12,196.13,53.12,196.13,53.621,192.91,53.621,192.91,53.12,193.92,53.12,193.92,45.188,192.91,45.188,192.91,44.688,196.13,44.688" fill="#000" clip-path="url(#XMLID_3_)"/>
<polygon points="197.01,44.311,197.66,44.311,197.66,44.688,204.26,44.688,204.26,44.311,204.91,44.311,204.91,46.448,204.26,46.448,204.26,45.366,201.55,45.366,201.55,53.12,202.91,53.12,202.91,53.621,199.01,53.621,199.01,53.12,200.36,53.12,200.36,45.366,197.66,45.366,197.66,46.448,197.01,46.448" fill="#000" clip-path="url(#XMLID_3_)"/>
<polygon points="209.01,44.688,209.01,45.188,207.78,45.188,210.1,48.736,212.26,45.188,211.02,45.188,211.02,44.688,213.73,44.688,213.73,45.188,213.03,45.188,210.43,49.425,210.43,53.12,211.46,53.12,211.46,53.621,208.24,53.621,208.24,53.12,209.25,53.12,209.25,49.507,206.45,45.188,205.67,45.188,205.67,44.688" fill="#000" clip-path="url(#XMLID_3_)"/>
<path fill="#000" d="m217.22,49.167c0-2.545,1.977-4.642,4.37-4.642,2.355,0,4.333,2.111,4.333,4.629s-1.978,4.641-4.333,4.641c-2.38,0.001-4.37-2.11-4.37-4.628m1.34-0.012c0,2.287,1.273,3.938,3.03,3.938,1.732,0,2.993-1.665,2.993-3.938,0-2.274-1.261-3.925-2.978-3.925-1.772,0-3.045,1.623-3.045,3.925" clip-path="url(#XMLID_3_)"/>
<polygon points="232.16,44.311,232.78,44.311,232.78,46.462,232.17,46.462,232.17,45.311,228.96,45.311,228.96,48.774,231.52,48.774,231.52,47.761,232.14,47.747,232.14,50.413,231.52,50.427,231.52,49.385,228.96,49.385,228.96,53.12,229.98,53.12,229.98,53.621,226.76,53.621,226.76,53.12,227.77,53.12,227.77,45.188,226.76,45.188,226.76,44.688,232.16,44.688" fill="#000" clip-path="url(#XMLID_3_)"/>
<path fill="#000" d="m108.79,82.534h-1.677v-6.42h1.677v2.817c2.176,1.463,3.14,1.82,4.708,1.82,2.854,0,4.78-1.498,4.78-3.746,0-2.033-1.391-3.531-5.243-5.529-4.494-2.353-6.028-4.138-6.028-7.077,0-3.532,2.997-6.171,7.026-6.171,1.783,0,3.104,0.32,4.245,0.999v-1.284h1.641v6.098h-1.641v-2.532c-1.819-1.211-2.711-1.567-4.138-1.567-2.426,0-3.993,1.461-3.993,3.672,0,1.82,1.032,2.863,5.49,5.438,4.461,2.568,5.744,4.138,5.744,7.063,0,3.709-3.069,6.563-7.098,6.563-2.247,0-3.71-0.464-5.493-1.604v1.46z" clip-path="url(#XMLID_3_)"/>
<polygon points="130.83,58.655,130.83,59.975,127.59,59.975,133.72,69.338,139.39,59.975,136.14,59.975,136.14,58.655,143.28,58.655,143.28,59.975,141.42,59.975,134.58,71.157,134.58,80.895,137.29,80.895,137.29,82.213,128.8,82.213,128.8,80.895,131.47,80.895,131.47,71.371,124.09,59.975,122.02,59.975,122.02,58.655" fill="#000" clip-path="url(#XMLID_3_)"/>
<path fill="#000" d="m145.06,82.213v-1.319h2.675v-20.919h-2.675v-1.32h10.522c6.42,0,11.664,5.279,11.664,11.753,0,6.597-5.136,11.805-11.7,11.805h-10.486zm5.815-1.784h4.281c4.885,0,8.595-4.315,8.558-9.984,0-5.512-3.78-9.971-8.487-9.971h-4.352v19.955z" clip-path="url(#XMLID_3_)"/>
<polygon points="171.24,80.893,171.24,61.331,170.27,59.977,167.81,59.977,167.81,58.656,172.98,58.656,186.04,76.578,186.04,59.977,183.33,59.977,183.33,58.656,190.5,58.656,190.5,59.977,187.82,59.977,187.82,82.606,186.72,82.606,173.02,63.756,173.02,80.893,175.73,80.893,175.73,82.213,168.52,82.213,168.52,80.893" fill="#000" clip-path="url(#XMLID_3_)"/>
<polygon points="207.15,57.657,208.79,57.657,208.79,63.329,207.19,63.329,207.19,60.295,198.73,60.295,198.73,69.444,205.47,69.444,205.47,66.763,207.11,66.727,207.11,73.759,205.47,73.795,205.47,71.048,198.73,71.048,198.73,80.608,207.51,80.608,207.51,77.469,209.15,77.469,209.15,82.213,192.92,82.213,192.92,80.895,195.59,80.895,195.59,59.975,192.92,59.975,192.92,58.655,207.15,58.655" fill="#000" clip-path="url(#XMLID_3_)"/>
<polygon points="220.34,58.655,220.34,59.975,217.1,59.975,223.23,69.338,228.9,59.975,225.66,59.975,225.66,58.655,232.79,58.655,232.79,59.975,230.94,59.975,224.09,71.157,224.09,80.895,226.8,80.895,226.8,82.213,218.31,82.213,218.31,80.895,220.99,80.895,220.99,71.371,213.6,59.975,211.53,59.975,211.53,58.655" fill="#000" clip-path="url(#XMLID_3_)"/>
<path fill="#fbb500" d="M93.869,39.555v16.543c0,20.053-13.656,40.649-33.338,44.502-18.98-3.603-33.321-24.45-33.321-44.502v-22.246s16.629-4.452,33.327-4.452c19.402,0,33.332,4.452,33.332,4.452v5.703z" clip-path="url(#XMLID_3_)"/>
<path fill="#FFF" d="M60.537,95.382c15.979-0.017,28.373-14.84,28.375-31.164v-28.101l-0.417-0.127s-14.398-4.465-27.964-4.469c-13.562,0.004-27.938,4.463-27.962,4.469l-0.417,0.127v28.102c0.002,16.324,12.396,31.147,28.375,31.164" clip-path="url(#XMLID_3_)"/>
<path fill="#004485" d="M66.989,93.322v-11.053h12.613c0.739,0,1.396,0.367,1.802,0.93,2.98-3.975,5.053-8.752,5.898-13.849h-20.313v-10.629c-2.135-0.108-4.307-0.173-6.457-0.173-2.146,0-4.315,0.064-6.446,0.171v10.631h-20.327c0.847,5.101,2.923,9.879,5.907,13.854,0.403-0.565,1.063-0.936,1.809-0.936h12.611v11.058c2.061,0.567,4.212,0.879,6.441,0.879v0.092h0.01v-0.092c2.231,0.001,4.388-0.311,6.452-0.883" clip-path="url(#XMLID_3_)"/>
<polygon points="73.861,72.122,76.617,73.429,77.594,70.579,78.62,73.443,81.327,72.122,80.021,74.877,82.87,75.861,80.002,76.883,81.327,79.594,78.573,78.288,77.594,81.141,76.571,78.273,73.861,79.594,75.17,76.84,72.318,75.861,75.183,74.837" fill="#fbb500" clip-path="url(#XMLID_3_)"/>
<polygon points="47.202,72.122,44.45,73.429,43.469,70.579,42.447,73.443,39.736,72.122,41.043,74.877,38.193,75.861,41.065,76.883,39.736,79.594,42.492,78.288,43.469,81.141,44.49,78.273,47.202,79.594,45.894,76.84,48.745,75.861,45.881,74.837" fill="#fbb500" clip-path="url(#XMLID_3_)"/>
<polygon points="56.806,82.951,59.554,84.257,60.539,81.404,61.563,84.273,64.266,82.951,62.963,85.705,65.813,86.684,62.947,87.709,64.266,90.42,61.518,89.116,60.539,91.974,59.515,89.096,56.806,90.42,58.113,87.667,55.261,86.684,58.127,85.66" fill="#fbb500" clip-path="url(#XMLID_3_)"/>
<polygon points="56.81,62.035,59.556,63.34,60.539,60.487,61.558,63.357,64.268,62.035,62.961,64.786,65.815,65.767,62.947,66.792,64.268,69.503,61.52,68.199,60.539,71.049,59.515,68.183,56.81,69.503,58.111,66.748,55.261,65.767,58.127,64.745" fill="#fbb500" clip-path="url(#XMLID_3_)"/>
<rect clip-path="url(#XMLID_3_)" height="0.881" width="1.195" y="71.483" x="69.504" fill="#fbb500"/>
<rect clip-path="url(#XMLID_3_)" height="0.877" width="1.195" y="73.83" x="69.504" fill="#fbb500"/>
<rect clip-path="url(#XMLID_3_)" height="0.881" width="1.195" y="76.17" x="69.504" fill="#fbb500"/>
<rect clip-path="url(#XMLID_3_)" height="0.875" width="1.195" y="78.517" x="69.504" fill="#fbb500"/>
<path fill="#FFF" d="m63.551,70.944c-0.103-0.015-0.222,0-0.329,0-1.213,0-2.148,0.937-2.148,2.131v7.083c0.397-0.468,0.99-0.765,1.655-0.765,0.085,0,4.476,0.003,6.141,0.003v-8.452h-5.319zm4.129,6.907h-5.256v-0.795h5.256v0.795zm0-2.18h-5.256v-0.798h5.256v0.798zm0-2.18h-5.256v-0.798h5.256v0.798z" clip-path="url(#XMLID_3_)"/>
<rect clip-path="url(#XMLID_3_)" height="0.881" width="1.195" y="71.483" x="50.364" fill="#fbb500"/>
<rect clip-path="url(#XMLID_3_)" height="0.877" width="1.195" y="73.83" x="50.364" fill="#fbb500"/>
<rect clip-path="url(#XMLID_3_)" height="0.881" width="1.195" y="76.17" x="50.364" fill="#fbb500"/>
<rect clip-path="url(#XMLID_3_)" height="0.875" width="1.195" y="78.517" x="50.364" fill="#fbb500"/>
<path fill="#FFF" d="m52.194,70.944v8.452c1.667,0,6.055-0.003,6.143-0.003,0.663,0,1.259,0.297,1.654,0.765v-7.083c0-1.194-0.934-2.131-2.151-2.131-0.106,0-0.226-0.015-0.326,0h-5.32zm1.188,6.109h5.257v0.796h-5.257v-0.796zm0-2.179h5.257v0.798h-5.257v-0.798zm0-2.178h5.257v0.798h-5.257v-0.798z" clip-path="url(#XMLID_3_)"/>
<path fill="#d4002a" d="m60.531,57.372c11.777,0.002,24.195,1.889,27.205,2.374v-22.756c-0.405-0.117-1.093-0.316-2.019-0.563-1.545-0.414-3.75-0.964-6.369-1.519-5.243-1.107-12.163-2.209-18.817-2.209-9.987-0.002-20.551,2.484-25.189,3.728-0.926,0.248-1.614,0.447-2.015,0.563v22.755c3.006-0.482,15.43-2.371,27.204-2.373" clip-path="url(#XMLID_3_)"/>
<path d="m72.562,50.55c-0.382,0.335-1.063,0.698-2.143,0.659-0.456-0.019-0.676,0.112-0.791,0.248-0.066,0.092-0.109,0.206-0.118,0.23-0.061,0.224,0.021,0.464,0.141,0.653,0.118,0.166,0.073,0.273-0.106,0.315-0.177,0.047-0.414,0.051-0.877-0.173-0.203-0.098-0.261,0.027-0.288,0.121-0.077,0.227,0.07,0.504,0.373,0.706,0.155,0.136,0.128,0.269-0.116,0.354-0.407,0.144-0.774-0.045-1.371-0.375-0.352-0.196-0.623-0.228-0.86,0.051-0.134,0.156-0.122,0.299-0.045,0.38,0.234,0.23,0.374,0.693-0.207,1.423-0.192,0.241-0.398-0.427-0.575-0.348-0.793,0.371-1.444-0.114-1.689-0.448-0.054-0.068-0.165-0.089-0.301,0-0.397,0.265-1.246,0.704-1.575-0.063-0.051-0.11-0.518,0.175-0.512-0.044,0.017-1.269,1.118-1.506,1.587-1.547,0.143-0.015,0.172-0.084,0.096-0.2-0.188-0.275-0.415-0.602-0.291-0.981,0.087-0.281-0.633-0.346-0.336-0.491,1.45-0.723,2.26,0.662,2.512,0.811,0.421,0.242,2.314-0.375,2.544-1.401,0.049-0.201-0.44-0.291-0.928-0.413-0.09-0.021-0.139-0.134,0.022-0.262,1.149-0.855,2.069-1.964,4.146-2.17,0.252-0.026,0.352,0.183,0.36,0.285,0.041,0.322,0.124,0.637,0.263,0.932,0.301,0.637,0.661,1.032,1.026,1.323,0.18,0.142,0.159,0.338,0.059,0.425m8.317-2.924c1.522,0.007,0.025,1.261-0.053,1.628-0.054,0.267,0.191,0.507,0.43,0.646,0.181,0.094,0.186,0.21,0.052,0.33-0.142,0.124-0.352,0.237-0.865,0.248-0.222,0.002-0.22,0.143-0.202,0.239,0.031,0.234,0.294,0.413,0.658,0.456,0.197,0.051,0.231,0.183,0.057,0.368-0.303,0.315-0.708,0.315-1.394,0.292-0.646-0.023-1.161,0.761-0.782,1.088,0.255,0.22,0.778,0.708,0.328,2.03-0.143,0.401-0.387-0.366-0.593-0.245-0.536,0.318-1.001-0.083-1.244-0.372-0.105-0.123-0.199-0.127-0.269,0-0.216,0.374-0.779,1.033-1.916,0.418-0.248-0.132-0.756,0.32-0.785,0.167-0.186-0.885,0.269-1.41,0.655-1.685,0.038-0.032,0.188-0.233-0.064-0.226-0.386-0.02-0.853-0.146-0.906-0.614-0.008-0.1-0.491-0.077-0.465-0.211,0.113-0.651,1.544-1.122,2.53-0.47,0.834,0.553,1.882-1.328,1.129-2.211-0.544-0.634-3.729,1.141-4.813-1.166-0.435-0.929,0.111-1.721-0.332-1.785-0.442-0.063-2.444-0.497-4.667,1.291-3.757,3.022-7.829,1.376-8.787,0.702-0.149-0.047-0.297,0.073-0.232,0.226,0.153,0.388,0.087,0.751-0.1,1.028-0.391,0.592-1.741,1.197-1.98,1.268-1.581,0.462-1.414,1.675-1.248,2.212,0.049,0.164-0.01,0.262-0.181,0.232-0.484-0.089-1.461-0.386-1.846-1.337-0.042-0.109-0.151-0.113-0.283-0.02-0.588,0.418-0.38,1.028-0.241,1.3,0.053,0.106,0.023,0.208-0.116,0.224-0.54,0.065-0.926-0.563-1.39-0.519-0.303,0.03-0.657,0.263-0.851,0.397-0.095,0.06-0.107,0.213-0.05,0.386,0.591,1.753-0.379,1.811-0.437,1.781-0.071-0.039-0.03-0.331-0.313-0.376-0.95,0.053-1.223-0.568-1.274-1.026-0.02-0.149-0.077-0.2-0.179-0.132-0.36,0.252-1.248,0.745-1.805,0.02-0.081-0.105-0.346,0.004-0.49,0.066-0.115,0.049-0.12-0.141-0.115-0.2,0.066-0.999,0.742-1.449,1.116-1.624,0.136-0.063,0.151-0.137,0.042-0.218-0.301-0.224-0.832-0.706-0.664-1.231,0.029-0.098-0.443-0.286-0.325-0.371,1.092-0.793,2.497,0.523,2.676,0.666,0.188,0.149,1.181,0.181,3.715-1.246,1.612-0.904,2.456-1.655,2.915-2.225,0.057-0.067,0.175-0.188,0.336-0.191,1.021-0.035,2.033-0.187,2.822-0.881,0.13-0.137,0.265-0.055,0.32-0.018,1.449,1.009,2.198-1.224,2.496-2.246,0.039-0.208,0.083-0.378,0.303-0.389,5.339,0.256,15.458,0.22,15.458,0.22s1.335,0.106,1.264-0.723c-0.106-1.329-5.624-1.302-9.746-0.734-1.496,0.207-3.668,0.325-4.953-0.173-0.533-0.206-0.964-0.538-1.203-0.961-0.256-0.542-0.191-0.867-0.142-1.209,0.064-0.25,0.187-0.513,0.358-0.792,1.056-1.632,3.499-1.758,4.258-1.758,0.146,0,0.238-0.062,0.256-0.169,0.077-0.377,0.36-1.248,1.384-1.303,0.289-0.019,0.582-0.128,0.764-0.211,0.122-0.055,0.199-0.023,0.177,0.083-0.029,0.132-0.091,0.308-0.243,0.44-0.719,0.616-0.612,0.9-0.527,0.981,0.051,0.039,0.116,0.02,0.169-0.032,2.176-1.896,3.444-0.64,3.831-0.23,0.063,0.073,0.081,0.188-0.045,0.22-1.478,0.332-2.047,1.651-5.066,1.438-0.367-0.024-2.839-0.148-3.625,0.972-0.452,0.651-0.137,1.259,1.197,1.553,1.013,0.222,3.376-0.121,4.49-0.212,1.091-0.09,5.845-0.684,8.339,0.033,1.052,0.301,2.581,1.148,2.276,2.743-0.198,1.007-1.167,1.404-1.167,1.404s-2.734,1.925,2.173,1.946m-35.689-2.472c-0.425-0.374,0.501-2.494-1.542-3.008-0.32-0.019,0.138,0.38,0.024,0.476-0.594,0.493-0.439,0.688-0.474,0.983-0.012,0.147-0.167,0.132-0.242,0.104-0.432-0.292-1.51-0.861-2.495,0.052-0.188,0.172,0.376,0.206,0.36,0.304-0.123,0.689,0.318,1.062,0.643,1.237,0.106,0.051,0.106,0.183,0.047,0.269-0.108,0.116-0.371,0.289-0.434,0.574-0.041,0.195-0.729,0.12-0.519,0.342,1.05,1.107,2.127,0.464,2.548,0.136,0.299-0.299,1.549,0.045,1.356,0.685-0.241,0.813-0.179,1.212,0.024,1.068,0.322-0.206,0.505-0.349,0.945-0.349,0.085,0,0.327,0.055,0.23,0.251-0.153,0.378-0.318,0.717-0.167,1.239,0.063,0.224,0.216,0.171,0.302,0.085,0.504-0.698,1.594-0.686,2.125-0.346,0.765,0.493,2.931,1.182,5.774-1.533,0.085-0.079,0.09-0.393-0.16-0.299-0.774,0.305-1.653,0.377-3.084-0.354-0.116-0.062-0.667-0.258-0.819-0.291-1.775-0.379-3.661-0.927-4.442-1.625m23.697-5.512s1.243-0.042,2.054-0.759c0,0,0.871-0.297,1.378,0.163,0.057,0.054,0.069,0.179-0.068,0.203-0.15,0.028-0.36,0.092-0.591,0.246-0.445,0.297-2.22,1.035-2.773,0.147m-13.368,6.448c-0.153,0.41-0.729,0.273-1.037,0.525-0.034,0.029-0.126,0.029-0.154,0.008-0.304-0.26-0.876-0.132-1.062-0.578-0.015-0.035-0.015-0.107,0.068-0.12,0.405-0.044,0.766-0.243,1.028-0.531,0.022-0.027,0.092-0.053,0.149,0.016,0.237,0.264,0.57,0.456,0.939,0.515,0.046,0.007,0.111,0.046,0.069,0.165m-3.638-7.365c-0.117-0.11-0.275-0.179-0.448-0.179-0.356,0-0.644,0.289-0.644,0.647,0,0.204,0.094,0.385,0.239,0.507,0.055,0.036,0.122,0.012,0.134-0.008,0.195-0.312,0.436-0.598,0.714-0.824,0.027-0.023,0.054-0.107,0.005-0.143m0.466,5.614c0-0.288-0.537-1.542-0.74-1.881-0.428-0.745,0.209-2.935,1.237-3.193,0.222-0.053,0.334-0.377,0.162-0.546-0.429-0.427-0.919-0.96-1.572-0.96-0.8,0-1.446,0.651-1.446,1.453,0,0.918,0.703,1.063,0.654,1.317-0.283,0.851-0.287,1.781,0.095,2.436,0.265,0.454,0.467,1.177,0.625,1.696,0.098,0.533,0.42,0.987,0.874,1.252,0.226,0.132,0.116,0.307,0.211,0.497,0.042,0.092,0.118,0.151,0.175,0.203,0.096,0.074,0.021,0.089-0.057,0.078-0.677-0.084-1.717-0.369-2.148-1.277-0.226-0.486-0.959,1.228-1.393,0.409-0.463-0.871-0.676-1.525-0.881-2.4-0.112-0.484-0.417,0.344-0.533,0.055-0.211-0.542-0.362-1.12-0.362-1.74,0-2.146,1.576-3.946,3.694-4.439,0.409-0.094-0.476-0.776,0.102-0.745,0.38,0.022,1.622,0.026,2.562,0.484,0.179,0.077,0.289-0.265,0.647-0.493,0.027-0.019,0.112-0.051,0.177-0.002,0.371,0.229,0.501,0.562,0.68,0.484,0.935-0.448,2.166-0.448,2.539-0.474,0.6-0.037-0.308,0.651,0.104,0.745,2.121,0.493,3.695,2.293,3.695,4.439,0,0.621-0.152,1.199-0.364,1.74-0.114,0.289-0.417-0.539-0.531-0.055-0.207,0.875-0.42,1.529-0.88,2.4-0.441,0.819-1.169-0.896-1.396-0.409-0.409,0.863-1.37,1.16-2.042,1.264-0.076,0.008-0.147-0.002-0.055-0.089,0.034-0.034,0.196-0.184,0.241-0.491,0.005-0.032-0.015-0.081,0.058-0.112,0.505-0.242,0.888-0.712,1-1.28,0.16-0.527,0.376-1.278,0.634-1.742,0.573-1.023-0.124-2.264,0.055-2.54,0.393-0.255,0.655-0.703,0.655-1.211,0-0.802-0.653-1.453-1.449-1.453-0.434,0-0.822,0.192-1.082,0.49l-0.041,0.039c-0.132,0.142-0.262,0.287-0.376,0.44-0.132,0.168-0.102,0.474,0.124,0.535,0.99,0.258,1.634,2.485,1.231,3.208-0.179,0.321-0.726,1.52-0.726,1.869,0,0.449-0.36,0.813-0.809,0.813-0.344,0-0.633-0.213-0.755-0.529,0,0,0.015-0.026,0.018-0.035,0.275-0.17,0.876-0.533,0.876-0.908l-0.119-1.221c0.491-0.059,0.719-0.326,0.778-0.793,0.045-0.029,0.09-0.063,0.128-0.096,0.165-0.151,0.273-0.556-0.079-0.499-0.501,0.094-1.069,0.075-1.619,0.228-0.073,0.02-0.126,0.085-0.141,0.156-0.024,0.106,0.298,1.58,0.371,1.906,0.004,0.036-0.019,0.06-0.037,0.06-0.224-0.02-0.623-0.039-0.721-0.039-0.096,0.002-0.486,0.024-0.718,0.043-0.024,0-0.057-0.03-0.047-0.06,0.074-0.348,0.396-1.813,0.396-1.813,0.006-0.063,0-0.126-0.034-0.177-0.107-0.139-1.542-0.26-1.736-0.299-0.081-0.015-0.163,0.018-0.213,0.085-0.143,0.203,0.106,0.429,0.265,0.523,0.061,0.452,0.301,0.714,0.776,0.773,0.007,0.006,0.016,0.022,0.022,0.024-0.015,0.081-0.137,1.209-0.137,1.215,0,0.391,0.593,0.721,0.888,0.894,0.014,0.02,0.036,0.045,0.041,0.073-0.143,0.284-0.423,0.486-0.745,0.486-0.446,0.002-0.806-0.362-0.806-0.811m4.637-5.544c0.267,0.228,0.49,0.525,0.676,0.857,0.014,0.034,0.085,0.075,0.124,0.039,0.143-0.118,0.236-0.297,0.236-0.499,0-0.358-0.288-0.647-0.646-0.647-0.143,0-0.275,0.045-0.38,0.126-0.027,0.019-0.033,0.103-0.01,0.124" fill-rule="evenodd" clip-path="url(#XMLID_3_)" fill="#ffdd92"/>
<path fill="#FFF" d="m88.496,35.991s-14.398-4.465-27.964-4.469c-13.565,0.004-27.938,4.461-27.965,4.469l-0.416,0.126v28.101c0.004,16.324,12.396,31.147,28.375,31.164v-1.177c-7.608,0-14.395-3.55-19.3-9.079-4.903-5.528-7.903-13.039-7.899-20.908v-3.278c1.137-0.186,4.209-0.668,8.336-1.152,5.251-0.621,12.18-1.239,18.868-1.239,6.685,0,13.615,0.619,18.869,1.239,4.125,0.484,7.197,0.967,8.336,1.152v3.278c0,7.869-2.998,15.38-7.899,20.908-4.906,5.529-11.693,9.079-19.3,9.079v1.177c15.978-0.017,28.372-14.84,28.374-31.164v-28.101l-0.415-0.126zm-27.965,21.382c-11.774,0-24.198,1.887-27.204,2.374v-22.759c0.401-0.117,1.088-0.315,2.015-0.56,4.639-1.246,15.202-3.731,25.189-3.729,6.654,0,13.574,1.101,18.817,2.207,2.62,0.555,4.824,1.107,6.369,1.522,0.926,0.245,1.613,0.443,2.019,0.56v22.758c-3.01-0.486-15.428-2.373-27.205-2.373" clip-path="url(#XMLID_3_)"/>
</g>
</svg>
